<mxfile host="app.diagrams.net" agent="Mozilla/5.0 (Windows NT 10.0; Win64; x64) AppleWebKit/537.36 (KHTML, like Gecko) Chrome/128.0.0.0 Safari/537.36" version="24.7.10">
  <diagram name="Page-1" id="ZN9X6Rz3ki3gevKDEhDP">
    <mxGraphModel dx="793" dy="338" grid="1" gridSize="10" guides="1" tooltips="1" connect="1" arrows="1" fold="1" page="1" pageScale="1" pageWidth="850" pageHeight="1100" math="0" shadow="0">
      <root>
        <mxCell id="0" />
        <mxCell id="1" parent="0" />
        <mxCell id="K7OHD3vhvZi9s71EPGVb-113" value="" style="rounded=0;whiteSpace=wrap;html=1;" parent="1" vertex="1">
          <mxGeometry x="120" y="20" width="1060" height="790" as="geometry" />
        </mxCell>
        <mxCell id="K7OHD3vhvZi9s71EPGVb-12" value="" style="rounded=1;whiteSpace=wrap;html=1;direction=south;" parent="1" vertex="1">
          <mxGeometry x="515" y="230" width="70" height="120" as="geometry" />
        </mxCell>
        <mxCell id="K7OHD3vhvZi9s71EPGVb-1" value="&lt;font style=&quot;font-size: 8px;&quot;&gt;T8051&lt;/font&gt;&lt;div&gt;&lt;font style=&quot;font-size: 8px;&quot;&gt;Methanol&lt;/font&gt;&lt;/div&gt;&lt;div&gt;&lt;font style=&quot;font-size: 8px;&quot;&gt;Seperator&lt;/font&gt;&lt;/div&gt;" style="rounded=1;whiteSpace=wrap;html=1;direction=south;" parent="1" vertex="1">
          <mxGeometry x="350" y="80" width="60" height="120" as="geometry" />
        </mxCell>
        <mxCell id="K7OHD3vhvZi9s71EPGVb-2" value="&lt;div&gt;&lt;font style=&quot;font-size: 6px;&quot;&gt;&lt;br&gt;&lt;/font&gt;&lt;/div&gt;&lt;font style=&quot;font-size: 6px;&quot;&gt;&lt;div&gt;&lt;font style=&quot;font-size: 6px;&quot;&gt;&lt;br&gt;&lt;/font&gt;&lt;/div&gt;&lt;div&gt;&lt;font style=&quot;font-size: 6px;&quot;&gt;&lt;br&gt;&lt;/font&gt;&lt;/div&gt;&lt;div&gt;&lt;font style=&quot;font-size: 6px;&quot;&gt;&lt;br&gt;&lt;/font&gt;&lt;/div&gt;&lt;div&gt;&lt;font style=&quot;font-size: 6px;&quot;&gt;&lt;br&gt;&lt;/font&gt;&lt;/div&gt;&lt;div&gt;&lt;font style=&quot;font-size: 6px;&quot;&gt;&lt;br&gt;&lt;/font&gt;&lt;/div&gt;Transesterification&lt;/font&gt;" style="rounded=1;whiteSpace=wrap;html=1;direction=south;" parent="1" vertex="1">
          <mxGeometry x="520" y="220" width="60" height="120" as="geometry" />
        </mxCell>
        <mxCell id="K7OHD3vhvZi9s71EPGVb-9" value="" style="endArrow=none;html=1;rounded=0;exitX=0;exitY=0.5;exitDx=0;exitDy=0;entryX=0.718;entryY=0.995;entryDx=0;entryDy=0;entryPerimeter=0;" parent="1" source="K7OHD3vhvZi9s71EPGVb-4" target="K7OHD3vhvZi9s71EPGVb-12" edge="1">
          <mxGeometry width="50" height="50" relative="1" as="geometry">
            <mxPoint x="300" y="300" as="sourcePoint" />
            <mxPoint x="480" y="313" as="targetPoint" />
          </mxGeometry>
        </mxCell>
        <mxCell id="K7OHD3vhvZi9s71EPGVb-23" value="" style="endArrow=none;html=1;rounded=0;exitX=0;exitY=0.5;exitDx=0;exitDy=0;entryX=0.89;entryY=-0.001;entryDx=0;entryDy=0;entryPerimeter=0;" parent="1" source="K7OHD3vhvZi9s71EPGVb-25" target="K7OHD3vhvZi9s71EPGVb-12" edge="1">
          <mxGeometry width="50" height="50" relative="1" as="geometry">
            <mxPoint x="320" y="320" as="sourcePoint" />
            <mxPoint x="535" y="336" as="targetPoint" />
          </mxGeometry>
        </mxCell>
        <mxCell id="K7OHD3vhvZi9s71EPGVb-31" value="" style="group" parent="1" vertex="1" connectable="0">
          <mxGeometry x="620" y="320" width="15" height="20.000000000000057" as="geometry" />
        </mxCell>
        <mxCell id="K7OHD3vhvZi9s71EPGVb-25" value="" style="triangle;whiteSpace=wrap;html=1;container=0;" parent="K7OHD3vhvZi9s71EPGVb-31" vertex="1">
          <mxGeometry y="13.333333333333371" width="7.5" height="6.666666666666666" as="geometry" />
        </mxCell>
        <mxCell id="K7OHD3vhvZi9s71EPGVb-26" value="" style="triangle;whiteSpace=wrap;html=1;direction=west;container=0;" parent="K7OHD3vhvZi9s71EPGVb-31" vertex="1">
          <mxGeometry x="7.5" y="13.333333333333371" width="7.5" height="6.666666666666666" as="geometry" />
        </mxCell>
        <mxCell id="K7OHD3vhvZi9s71EPGVb-27" value="" style="endArrow=none;html=1;rounded=0;exitX=1;exitY=0.5;exitDx=0;exitDy=0;" parent="K7OHD3vhvZi9s71EPGVb-31" source="K7OHD3vhvZi9s71EPGVb-26" edge="1">
          <mxGeometry width="50" height="50" relative="1" as="geometry">
            <mxPoint x="7.5" y="13.333333333333371" as="sourcePoint" />
            <mxPoint x="7.5" y="6.666666666666629" as="targetPoint" />
          </mxGeometry>
        </mxCell>
        <mxCell id="K7OHD3vhvZi9s71EPGVb-28" value="" style="shape=or;whiteSpace=wrap;html=1;direction=north;container=0;" parent="K7OHD3vhvZi9s71EPGVb-31" vertex="1">
          <mxGeometry width="15" height="6.666666666666666" as="geometry" />
        </mxCell>
        <mxCell id="K7OHD3vhvZi9s71EPGVb-32" value="" style="endArrow=none;html=1;rounded=0;entryX=0;entryY=0.5;entryDx=0;entryDy=0;exitX=0.52;exitY=0.48;exitDx=0;exitDy=0;exitPerimeter=0;" parent="1" source="K7OHD3vhvZi9s71EPGVb-33" target="K7OHD3vhvZi9s71EPGVb-2" edge="1">
          <mxGeometry width="50" height="50" relative="1" as="geometry">
            <mxPoint x="535" y="290" as="sourcePoint" />
            <mxPoint x="565" y="220" as="targetPoint" />
          </mxGeometry>
        </mxCell>
        <mxCell id="K7OHD3vhvZi9s71EPGVb-33" value="" style="shape=collate;whiteSpace=wrap;html=1;direction=south;" parent="1" vertex="1">
          <mxGeometry x="530" y="290" width="40" height="10" as="geometry" />
        </mxCell>
        <mxCell id="K7OHD3vhvZi9s71EPGVb-35" value="" style="shape=datastore;whiteSpace=wrap;html=1;direction=west;" parent="1" vertex="1">
          <mxGeometry x="540" y="200" width="20" height="30" as="geometry" />
        </mxCell>
        <mxCell id="K7OHD3vhvZi9s71EPGVb-36" value="" style="group" parent="1" vertex="1" connectable="0">
          <mxGeometry x="470" y="300" width="15" height="20.000000000000057" as="geometry" />
        </mxCell>
        <mxCell id="K7OHD3vhvZi9s71EPGVb-3" value="" style="triangle;whiteSpace=wrap;html=1;container=0;" parent="K7OHD3vhvZi9s71EPGVb-36" vertex="1">
          <mxGeometry y="13.333333333333371" width="7.5" height="6.666666666666666" as="geometry" />
        </mxCell>
        <mxCell id="K7OHD3vhvZi9s71EPGVb-4" value="" style="triangle;whiteSpace=wrap;html=1;direction=west;container=0;" parent="K7OHD3vhvZi9s71EPGVb-36" vertex="1">
          <mxGeometry x="7.5" y="13.333333333333371" width="7.5" height="6.666666666666666" as="geometry" />
        </mxCell>
        <mxCell id="K7OHD3vhvZi9s71EPGVb-5" value="" style="endArrow=none;html=1;rounded=0;exitX=1;exitY=0.5;exitDx=0;exitDy=0;" parent="K7OHD3vhvZi9s71EPGVb-36" source="K7OHD3vhvZi9s71EPGVb-4" edge="1">
          <mxGeometry width="50" height="50" relative="1" as="geometry">
            <mxPoint x="7.5" y="13.333333333333371" as="sourcePoint" />
            <mxPoint x="7.5" y="6.666666666666629" as="targetPoint" />
          </mxGeometry>
        </mxCell>
        <mxCell id="K7OHD3vhvZi9s71EPGVb-6" value="" style="shape=or;whiteSpace=wrap;html=1;direction=north;container=0;" parent="K7OHD3vhvZi9s71EPGVb-36" vertex="1">
          <mxGeometry width="15" height="6.666666666666666" as="geometry" />
        </mxCell>
        <mxCell id="K7OHD3vhvZi9s71EPGVb-42" value="" style="edgeStyle=orthogonalEdgeStyle;rounded=0;orthogonalLoop=1;jettySize=auto;html=1;" parent="1" source="K7OHD3vhvZi9s71EPGVb-26" edge="1">
          <mxGeometry relative="1" as="geometry">
            <mxPoint x="668.75" y="336.71428571428567" as="targetPoint" />
          </mxGeometry>
        </mxCell>
        <mxCell id="K7OHD3vhvZi9s71EPGVb-52" value="" style="group" parent="1" vertex="1" connectable="0">
          <mxGeometry x="490" y="170" width="50" height="43.329999999999984" as="geometry" />
        </mxCell>
        <mxCell id="K7OHD3vhvZi9s71EPGVb-47" value="" style="shape=collate;whiteSpace=wrap;html=1;direction=south;container=0;" parent="K7OHD3vhvZi9s71EPGVb-52" vertex="1">
          <mxGeometry y="13.333333333333332" width="20" height="6.666666666666666" as="geometry" />
        </mxCell>
        <mxCell id="K7OHD3vhvZi9s71EPGVb-48" value="" style="rounded=0;whiteSpace=wrap;html=1;container=0;" parent="K7OHD3vhvZi9s71EPGVb-52" vertex="1">
          <mxGeometry x="1" width="18" height="6.666666666666666" as="geometry" />
        </mxCell>
        <mxCell id="K7OHD3vhvZi9s71EPGVb-49" value="" style="endArrow=none;html=1;rounded=0;entryX=0.516;entryY=0.508;entryDx=0;entryDy=0;entryPerimeter=0;" parent="K7OHD3vhvZi9s71EPGVb-52" target="K7OHD3vhvZi9s71EPGVb-47" edge="1">
          <mxGeometry width="50" height="50" relative="1" as="geometry">
            <mxPoint x="10" y="3.333333333333333" as="sourcePoint" />
            <mxPoint x="30" y="13.333333333333332" as="targetPoint" />
          </mxGeometry>
        </mxCell>
        <mxCell id="K7OHD3vhvZi9s71EPGVb-50" value="" style="endArrow=none;html=1;rounded=0;exitX=0;exitY=0.5;exitDx=0;exitDy=0;entryX=1;entryY=0.5;entryDx=0;entryDy=0;" parent="K7OHD3vhvZi9s71EPGVb-52" source="K7OHD3vhvZi9s71EPGVb-48" target="K7OHD3vhvZi9s71EPGVb-48" edge="1">
          <mxGeometry width="50" height="50" relative="1" as="geometry">
            <mxPoint y="6.666666666666666" as="sourcePoint" />
            <mxPoint x="20" as="targetPoint" />
          </mxGeometry>
        </mxCell>
        <mxCell id="K7OHD3vhvZi9s71EPGVb-114" value="&lt;font style=&quot;font-size: 6px;&quot;&gt;XCV-T8051&lt;/font&gt;" style="text;html=1;align=center;verticalAlign=middle;whiteSpace=wrap;rounded=0;" parent="K7OHD3vhvZi9s71EPGVb-52" vertex="1">
          <mxGeometry x="-30" y="13.329999999999984" width="80" height="30" as="geometry" />
        </mxCell>
        <mxCell id="K7OHD3vhvZi9s71EPGVb-55" value="" style="endArrow=none;html=1;rounded=0;exitX=0.003;exitY=0.827;exitDx=0;exitDy=0;exitPerimeter=0;entryX=0.5;entryY=0;entryDx=0;entryDy=0;" parent="1" source="K7OHD3vhvZi9s71EPGVb-2" target="K7OHD3vhvZi9s71EPGVb-47" edge="1">
          <mxGeometry width="50" height="50" relative="1" as="geometry">
            <mxPoint x="540" y="210" as="sourcePoint" />
            <mxPoint x="530" y="190" as="targetPoint" />
            <Array as="points">
              <mxPoint x="530" y="187" />
            </Array>
          </mxGeometry>
        </mxCell>
        <mxCell id="K7OHD3vhvZi9s71EPGVb-56" value="" style="endArrow=none;html=1;rounded=0;entryX=0.5;entryY=1;entryDx=0;entryDy=0;exitX=0.894;exitY=0.004;exitDx=0;exitDy=0;exitPerimeter=0;" parent="1" source="K7OHD3vhvZi9s71EPGVb-1" target="K7OHD3vhvZi9s71EPGVb-47" edge="1">
          <mxGeometry width="50" height="50" relative="1" as="geometry">
            <mxPoint x="400" y="260" as="sourcePoint" />
            <mxPoint x="450" y="210" as="targetPoint" />
          </mxGeometry>
        </mxCell>
        <mxCell id="K7OHD3vhvZi9s71EPGVb-57" value="" style="endArrow=none;html=1;rounded=0;entryX=0;entryY=0.5;entryDx=0;entryDy=0;" parent="1" target="K7OHD3vhvZi9s71EPGVb-3" edge="1">
          <mxGeometry width="50" height="50" relative="1" as="geometry">
            <mxPoint x="440" y="317" as="sourcePoint" />
            <mxPoint x="430" y="330" as="targetPoint" />
          </mxGeometry>
        </mxCell>
        <mxCell id="K7OHD3vhvZi9s71EPGVb-58" value="&lt;font style=&quot;font-size: 6px;&quot;&gt;&lt;b&gt;T-8040&lt;/b&gt;&lt;/font&gt;&lt;div&gt;&lt;font style=&quot;font-size: 6px;&quot;&gt;&lt;b&gt;PRE_TREATMENT&lt;/b&gt;&lt;/font&gt;&lt;/div&gt;" style="rounded=1;whiteSpace=wrap;html=1;direction=south;" parent="1" vertex="1">
          <mxGeometry x="150" y="10" width="60" height="120" as="geometry" />
        </mxCell>
        <mxCell id="K7OHD3vhvZi9s71EPGVb-59" value="" style="group" parent="1" vertex="1" connectable="0">
          <mxGeometry x="290" y="100" width="20" height="20" as="geometry" />
        </mxCell>
        <mxCell id="K7OHD3vhvZi9s71EPGVb-60" value="" style="shape=collate;whiteSpace=wrap;html=1;direction=south;container=0;" parent="K7OHD3vhvZi9s71EPGVb-59" vertex="1">
          <mxGeometry y="13.333333333333332" width="20" height="6.666666666666666" as="geometry" />
        </mxCell>
        <mxCell id="K7OHD3vhvZi9s71EPGVb-61" value="" style="rounded=0;whiteSpace=wrap;html=1;container=0;" parent="K7OHD3vhvZi9s71EPGVb-59" vertex="1">
          <mxGeometry x="1" width="18" height="6.666666666666666" as="geometry" />
        </mxCell>
        <mxCell id="K7OHD3vhvZi9s71EPGVb-62" value="" style="endArrow=none;html=1;rounded=0;entryX=0.516;entryY=0.508;entryDx=0;entryDy=0;entryPerimeter=0;" parent="K7OHD3vhvZi9s71EPGVb-59" target="K7OHD3vhvZi9s71EPGVb-60" edge="1">
          <mxGeometry width="50" height="50" relative="1" as="geometry">
            <mxPoint x="10" y="3.333333333333333" as="sourcePoint" />
            <mxPoint x="30" y="13.333333333333332" as="targetPoint" />
          </mxGeometry>
        </mxCell>
        <mxCell id="K7OHD3vhvZi9s71EPGVb-63" value="" style="endArrow=none;html=1;rounded=0;exitX=0;exitY=0.5;exitDx=0;exitDy=0;entryX=1;entryY=0.5;entryDx=0;entryDy=0;" parent="K7OHD3vhvZi9s71EPGVb-59" source="K7OHD3vhvZi9s71EPGVb-61" target="K7OHD3vhvZi9s71EPGVb-61" edge="1">
          <mxGeometry width="50" height="50" relative="1" as="geometry">
            <mxPoint y="6.666666666666666" as="sourcePoint" />
            <mxPoint x="20" as="targetPoint" />
          </mxGeometry>
        </mxCell>
        <mxCell id="K7OHD3vhvZi9s71EPGVb-64" value="" style="endArrow=none;html=1;rounded=0;entryX=0.5;entryY=1;entryDx=0;entryDy=0;exitX=0.894;exitY=0.004;exitDx=0;exitDy=0;exitPerimeter=0;" parent="1" source="K7OHD3vhvZi9s71EPGVb-58" target="K7OHD3vhvZi9s71EPGVb-60" edge="1">
          <mxGeometry width="50" height="50" relative="1" as="geometry">
            <mxPoint x="200" y="190" as="sourcePoint" />
            <mxPoint x="250" y="140" as="targetPoint" />
          </mxGeometry>
        </mxCell>
        <mxCell id="K7OHD3vhvZi9s71EPGVb-67" value="" style="endArrow=none;html=1;rounded=0;entryX=0.5;entryY=0;entryDx=0;entryDy=0;exitX=0.304;exitY=0.999;exitDx=0;exitDy=0;exitPerimeter=0;" parent="1" source="K7OHD3vhvZi9s71EPGVb-1" target="K7OHD3vhvZi9s71EPGVb-60" edge="1">
          <mxGeometry width="50" height="50" relative="1" as="geometry">
            <mxPoint x="290" y="180" as="sourcePoint" />
            <mxPoint x="340" y="130" as="targetPoint" />
          </mxGeometry>
        </mxCell>
        <mxCell id="K7OHD3vhvZi9s71EPGVb-80" value="" style="endArrow=none;html=1;rounded=0;entryX=1;entryY=0.5;entryDx=0;entryDy=0;" parent="1" target="K7OHD3vhvZi9s71EPGVb-2" edge="1">
          <mxGeometry width="50" height="50" relative="1" as="geometry">
            <mxPoint x="550" y="390" as="sourcePoint" />
            <mxPoint x="530" y="390" as="targetPoint" />
          </mxGeometry>
        </mxCell>
        <mxCell id="K7OHD3vhvZi9s71EPGVb-75" value="" style="rounded=0;whiteSpace=wrap;html=1;container=0;rotation=90;" parent="1" vertex="1">
          <mxGeometry x="552" y="396.67" width="18" height="6.666666666666666" as="geometry" />
        </mxCell>
        <mxCell id="K7OHD3vhvZi9s71EPGVb-77" value="" style="endArrow=none;html=1;rounded=0;exitX=0;exitY=0.5;exitDx=0;exitDy=0;entryX=1;entryY=0.5;entryDx=0;entryDy=0;" parent="1" source="K7OHD3vhvZi9s71EPGVb-75" target="K7OHD3vhvZi9s71EPGVb-75" edge="1">
          <mxGeometry width="50" height="50" relative="1" as="geometry">
            <mxPoint x="557" y="389.67" as="sourcePoint" />
            <mxPoint x="564" y="409.67" as="targetPoint" />
          </mxGeometry>
        </mxCell>
        <mxCell id="K7OHD3vhvZi9s71EPGVb-81" value="" style="shape=collate;whiteSpace=wrap;html=1;" parent="1" vertex="1">
          <mxGeometry x="545" y="390" width="10" height="19" as="geometry" />
        </mxCell>
        <mxCell id="K7OHD3vhvZi9s71EPGVb-82" value="" style="endArrow=none;html=1;rounded=0;entryX=0.483;entryY=0.555;entryDx=0;entryDy=0;entryPerimeter=0;exitX=0.5;exitY=1;exitDx=0;exitDy=0;" parent="1" source="K7OHD3vhvZi9s71EPGVb-75" target="K7OHD3vhvZi9s71EPGVb-81" edge="1">
          <mxGeometry width="50" height="50" relative="1" as="geometry">
            <mxPoint x="460" y="430" as="sourcePoint" />
            <mxPoint x="510" y="380" as="targetPoint" />
          </mxGeometry>
        </mxCell>
        <mxCell id="K7OHD3vhvZi9s71EPGVb-83" value="&lt;font style=&quot;font-size: 8px;&quot;&gt;Seperating&lt;/font&gt;&lt;div&gt;&lt;font style=&quot;font-size: 8px;&quot;&gt;Vessel&lt;/font&gt;&lt;/div&gt;&lt;div&gt;&lt;font style=&quot;font-size: 8px;&quot;&gt;V-8052&lt;/font&gt;&lt;/div&gt;" style="rounded=1;whiteSpace=wrap;html=1;direction=south;" parent="1" vertex="1">
          <mxGeometry x="640" y="396.67" width="60" height="120" as="geometry" />
        </mxCell>
        <mxCell id="K7OHD3vhvZi9s71EPGVb-84" value="" style="endArrow=none;html=1;rounded=0;entryX=0.5;entryY=1;entryDx=0;entryDy=0;exitX=0.25;exitY=1;exitDx=0;exitDy=0;" parent="1" source="K7OHD3vhvZi9s71EPGVb-83" target="K7OHD3vhvZi9s71EPGVb-81" edge="1">
          <mxGeometry width="50" height="50" relative="1" as="geometry">
            <mxPoint x="550" y="440" as="sourcePoint" />
            <mxPoint x="550" y="450" as="targetPoint" />
            <Array as="points">
              <mxPoint x="550" y="427" />
            </Array>
          </mxGeometry>
        </mxCell>
        <mxCell id="K7OHD3vhvZi9s71EPGVb-89" value="&lt;font style=&quot;font-size: 8px;&quot;&gt;Water Washing&lt;/font&gt;&lt;div&gt;&lt;font style=&quot;font-size: 8px;&quot;&gt;V-8053&lt;/font&gt;&lt;/div&gt;" style="rounded=1;whiteSpace=wrap;html=1;direction=south;" parent="1" vertex="1">
          <mxGeometry x="795" y="253.33" width="60" height="120" as="geometry" />
        </mxCell>
        <mxCell id="K7OHD3vhvZi9s71EPGVb-90" value="" style="endArrow=none;html=1;rounded=0;entryX=0.5;entryY=1;entryDx=0;entryDy=0;exitX=0.75;exitY=1;exitDx=0;exitDy=0;" parent="1" source="K7OHD3vhvZi9s71EPGVb-89" target="K7OHD3vhvZi9s71EPGVb-87" edge="1">
          <mxGeometry width="50" height="50" relative="1" as="geometry">
            <mxPoint x="705" y="296.65999999999997" as="sourcePoint" />
            <mxPoint x="705" y="306.65999999999997" as="targetPoint" />
            <Array as="points">
              <mxPoint x="705" y="343" />
            </Array>
          </mxGeometry>
        </mxCell>
        <mxCell id="K7OHD3vhvZi9s71EPGVb-91" value="" style="group" parent="1" vertex="1" connectable="0">
          <mxGeometry x="700" y="360" width="19.33333333333337" height="19.00333333333336" as="geometry" />
        </mxCell>
        <mxCell id="K7OHD3vhvZi9s71EPGVb-85" value="" style="rounded=0;whiteSpace=wrap;html=1;container=0;rotation=90;" parent="K7OHD3vhvZi9s71EPGVb-91" vertex="1">
          <mxGeometry x="7" y="6.670000000000016" width="18" height="6.666666666666666" as="geometry" />
        </mxCell>
        <mxCell id="K7OHD3vhvZi9s71EPGVb-86" value="" style="endArrow=none;html=1;rounded=0;exitX=0;exitY=0.5;exitDx=0;exitDy=0;entryX=1;entryY=0.5;entryDx=0;entryDy=0;" parent="K7OHD3vhvZi9s71EPGVb-91" source="K7OHD3vhvZi9s71EPGVb-85" target="K7OHD3vhvZi9s71EPGVb-85" edge="1">
          <mxGeometry width="50" height="50" relative="1" as="geometry">
            <mxPoint x="12" y="-0.3299999999999841" as="sourcePoint" />
            <mxPoint x="19" y="19.670000000000044" as="targetPoint" />
          </mxGeometry>
        </mxCell>
        <mxCell id="K7OHD3vhvZi9s71EPGVb-87" value="" style="shape=collate;whiteSpace=wrap;html=1;" parent="K7OHD3vhvZi9s71EPGVb-91" vertex="1">
          <mxGeometry width="10" height="19" as="geometry" />
        </mxCell>
        <mxCell id="K7OHD3vhvZi9s71EPGVb-88" value="" style="endArrow=none;html=1;rounded=0;entryX=0.483;entryY=0.555;entryDx=0;entryDy=0;entryPerimeter=0;exitX=0.5;exitY=1;exitDx=0;exitDy=0;" parent="K7OHD3vhvZi9s71EPGVb-91" source="K7OHD3vhvZi9s71EPGVb-85" target="K7OHD3vhvZi9s71EPGVb-87" edge="1">
          <mxGeometry width="50" height="50" relative="1" as="geometry">
            <mxPoint x="-85" y="39.99999999999997" as="sourcePoint" />
            <mxPoint x="-35" y="-10" as="targetPoint" />
          </mxGeometry>
        </mxCell>
        <mxCell id="K7OHD3vhvZi9s71EPGVb-92" value="" style="endArrow=none;html=1;rounded=0;exitX=0.5;exitY=1;exitDx=0;exitDy=0;entryX=0;entryY=0.5;entryDx=0;entryDy=0;" parent="1" source="K7OHD3vhvZi9s71EPGVb-87" target="K7OHD3vhvZi9s71EPGVb-83" edge="1">
          <mxGeometry width="50" height="50" relative="1" as="geometry">
            <mxPoint x="630" y="470" as="sourcePoint" />
            <mxPoint x="670" y="380" as="targetPoint" />
            <Array as="points">
              <mxPoint x="705" y="390" />
              <mxPoint x="670" y="390" />
            </Array>
          </mxGeometry>
        </mxCell>
        <mxCell id="K7OHD3vhvZi9s71EPGVb-93" value="&lt;font style=&quot;font-size: 8px;&quot;&gt;Final &lt;/font&gt;&lt;font style=&quot;font-size: 8px;&quot;&gt;Purification&lt;/font&gt;&lt;div&gt;&lt;font style=&quot;font-size: 8px;&quot;&gt;V-8054&lt;/font&gt;&lt;/div&gt;" style="rounded=1;whiteSpace=wrap;html=1;direction=south;" parent="1" vertex="1">
          <mxGeometry x="940" y="140.00000000000006" width="60" height="120" as="geometry" />
        </mxCell>
        <mxCell id="K7OHD3vhvZi9s71EPGVb-95" value="" style="group;direction=west;rotation=-90;" parent="1" vertex="1" connectable="0">
          <mxGeometry x="870" y="150" width="19.33333333333337" height="19.00333333333336" as="geometry" />
        </mxCell>
        <mxCell id="K7OHD3vhvZi9s71EPGVb-96" value="" style="rounded=0;whiteSpace=wrap;html=1;container=0;rotation=0;" parent="K7OHD3vhvZi9s71EPGVb-95" vertex="1">
          <mxGeometry x="1" width="18" height="6.666666666666666" as="geometry" />
        </mxCell>
        <mxCell id="K7OHD3vhvZi9s71EPGVb-97" value="" style="endArrow=none;html=1;rounded=0;exitX=0;exitY=0.5;exitDx=0;exitDy=0;entryX=1;entryY=0.5;entryDx=0;entryDy=0;" parent="K7OHD3vhvZi9s71EPGVb-95" source="K7OHD3vhvZi9s71EPGVb-96" target="K7OHD3vhvZi9s71EPGVb-96" edge="1">
          <mxGeometry width="50" height="50" relative="1" as="geometry">
            <mxPoint y="7" as="sourcePoint" />
            <mxPoint x="20" as="targetPoint" />
          </mxGeometry>
        </mxCell>
        <mxCell id="K7OHD3vhvZi9s71EPGVb-98" value="" style="shape=collate;whiteSpace=wrap;html=1;rotation=-90;" parent="K7OHD3vhvZi9s71EPGVb-95" vertex="1">
          <mxGeometry x="5" y="5" width="10" height="19" as="geometry" />
        </mxCell>
        <mxCell id="K7OHD3vhvZi9s71EPGVb-99" value="" style="endArrow=none;html=1;rounded=0;entryX=0.483;entryY=0.555;entryDx=0;entryDy=0;entryPerimeter=0;exitX=0.5;exitY=1;exitDx=0;exitDy=0;" parent="K7OHD3vhvZi9s71EPGVb-95" source="K7OHD3vhvZi9s71EPGVb-96" target="K7OHD3vhvZi9s71EPGVb-98" edge="1">
          <mxGeometry width="50" height="50" relative="1" as="geometry">
            <mxPoint x="40" y="104" as="sourcePoint" />
            <mxPoint x="-10" y="54" as="targetPoint" />
          </mxGeometry>
        </mxCell>
        <mxCell id="K7OHD3vhvZi9s71EPGVb-100" value="" style="endArrow=none;html=1;rounded=0;exitX=0;exitY=0.5;exitDx=0;exitDy=0;entryX=0.5;entryY=0;entryDx=0;entryDy=0;" parent="1" source="K7OHD3vhvZi9s71EPGVb-89" target="K7OHD3vhvZi9s71EPGVb-98" edge="1">
          <mxGeometry width="50" height="50" relative="1" as="geometry">
            <mxPoint x="830" y="250" as="sourcePoint" />
            <mxPoint x="840" y="180" as="targetPoint" />
            <Array as="points">
              <mxPoint x="825" y="165" />
            </Array>
          </mxGeometry>
        </mxCell>
        <mxCell id="K7OHD3vhvZi9s71EPGVb-102" value="" style="endArrow=none;html=1;rounded=0;exitX=0.5;exitY=1;exitDx=0;exitDy=0;entryX=0.199;entryY=1.002;entryDx=0;entryDy=0;entryPerimeter=0;" parent="1" source="K7OHD3vhvZi9s71EPGVb-98" target="K7OHD3vhvZi9s71EPGVb-93" edge="1">
          <mxGeometry width="50" height="50" relative="1" as="geometry">
            <mxPoint x="930" y="130" as="sourcePoint" />
            <mxPoint x="980" y="80" as="targetPoint" />
          </mxGeometry>
        </mxCell>
        <mxCell id="K7OHD3vhvZi9s71EPGVb-109" value="" style="endArrow=none;html=1;rounded=0;exitX=0;exitY=0.5;exitDx=0;exitDy=0;entryX=0.031;entryY=0.969;entryDx=0;entryDy=0;entryPerimeter=0;" parent="1" source="K7OHD3vhvZi9s71EPGVb-105" target="K7OHD3vhvZi9s71EPGVb-2" edge="1">
          <mxGeometry width="50" height="50" relative="1" as="geometry">
            <mxPoint x="440" y="260" as="sourcePoint" />
            <mxPoint x="520" y="220" as="targetPoint" />
            <Array as="points">
              <mxPoint x="440" y="247" />
              <mxPoint x="440" y="224" />
            </Array>
          </mxGeometry>
        </mxCell>
        <mxCell id="K7OHD3vhvZi9s71EPGVb-110" value="" style="group" parent="1" vertex="1" connectable="0">
          <mxGeometry x="370" y="230" width="45" height="20.00000000000003" as="geometry" />
        </mxCell>
        <mxCell id="K7OHD3vhvZi9s71EPGVb-108" value="" style="endArrow=none;html=1;rounded=0;entryX=0;entryY=0.5;entryDx=0;entryDy=0;" parent="K7OHD3vhvZi9s71EPGVb-110" target="K7OHD3vhvZi9s71EPGVb-104" edge="1">
          <mxGeometry width="50" height="50" relative="1" as="geometry">
            <mxPoint y="17" as="sourcePoint" />
            <mxPoint x="-10" y="30" as="targetPoint" />
          </mxGeometry>
        </mxCell>
        <mxCell id="K7OHD3vhvZi9s71EPGVb-104" value="" style="triangle;whiteSpace=wrap;html=1;container=0;" parent="K7OHD3vhvZi9s71EPGVb-110" vertex="1">
          <mxGeometry x="30" y="13.333333333333371" width="7.5" height="6.666666666666666" as="geometry" />
        </mxCell>
        <mxCell id="K7OHD3vhvZi9s71EPGVb-105" value="" style="triangle;whiteSpace=wrap;html=1;direction=west;container=0;" parent="K7OHD3vhvZi9s71EPGVb-110" vertex="1">
          <mxGeometry x="37.5" y="13.333333333333371" width="7.5" height="6.666666666666666" as="geometry" />
        </mxCell>
        <mxCell id="K7OHD3vhvZi9s71EPGVb-106" value="" style="endArrow=none;html=1;rounded=0;exitX=1;exitY=0.5;exitDx=0;exitDy=0;" parent="K7OHD3vhvZi9s71EPGVb-110" source="K7OHD3vhvZi9s71EPGVb-105" edge="1">
          <mxGeometry width="50" height="50" relative="1" as="geometry">
            <mxPoint x="37.5" y="13.333333333333371" as="sourcePoint" />
            <mxPoint x="37.5" y="6.666666666666629" as="targetPoint" />
          </mxGeometry>
        </mxCell>
        <mxCell id="K7OHD3vhvZi9s71EPGVb-107" value="" style="shape=or;whiteSpace=wrap;html=1;direction=north;container=0;" parent="K7OHD3vhvZi9s71EPGVb-110" vertex="1">
          <mxGeometry x="30" width="15" height="6.666666666666666" as="geometry" />
        </mxCell>
        <mxCell id="K7OHD3vhvZi9s71EPGVb-111" value="Sodium Hydroxide" style="text;html=1;align=center;verticalAlign=middle;resizable=0;points=[];autosize=1;strokeColor=none;fillColor=none;" parent="1" vertex="1">
          <mxGeometry x="250" y="230" width="120" height="30" as="geometry" />
        </mxCell>
        <mxCell id="K7OHD3vhvZi9s71EPGVb-115" value="&lt;font style=&quot;font-size: 6px;&quot;&gt;XCV-T800&lt;span style=&quot;background-color: initial;&quot;&gt;1&lt;/span&gt;&lt;/font&gt;" style="text;html=1;align=center;verticalAlign=middle;whiteSpace=wrap;rounded=0;" parent="1" vertex="1">
          <mxGeometry x="370" y="240" width="80" height="30" as="geometry" />
        </mxCell>
        <mxCell id="K7OHD3vhvZi9s71EPGVb-116" value="&lt;font style=&quot;font-size: 4px;&quot;&gt;TT-T8051&lt;/font&gt;" style="ellipse;whiteSpace=wrap;html=1;aspect=fixed;" parent="1" vertex="1">
          <mxGeometry x="600" y="200" width="20" height="20" as="geometry" />
        </mxCell>
        <mxCell id="K7OHD3vhvZi9s71EPGVb-117" value="" style="endArrow=none;html=1;rounded=0;entryX=0;entryY=0.5;entryDx=0;entryDy=0;" parent="1" target="K7OHD3vhvZi9s71EPGVb-116" edge="1">
          <mxGeometry width="50" height="50" relative="1" as="geometry">
            <mxPoint x="570" y="220" as="sourcePoint" />
            <mxPoint x="600" y="220" as="targetPoint" />
            <Array as="points">
              <mxPoint x="570" y="210" />
            </Array>
          </mxGeometry>
        </mxCell>
        <mxCell id="K7OHD3vhvZi9s71EPGVb-118" value="&lt;font style=&quot;font-size: 6px;&quot;&gt;TCV-R8051-A&lt;/font&gt;" style="text;html=1;align=center;verticalAlign=middle;whiteSpace=wrap;rounded=0;" parent="1" vertex="1">
          <mxGeometry x="440" y="310" width="80" height="30" as="geometry" />
        </mxCell>
        <mxCell id="K7OHD3vhvZi9s71EPGVb-119" value="&lt;font style=&quot;font-size: 6px;&quot;&gt;TCV-R8051-B&lt;/font&gt;" style="text;html=1;align=center;verticalAlign=middle;whiteSpace=wrap;rounded=0;" parent="1" vertex="1">
          <mxGeometry x="577.5" y="330" width="80" height="30" as="geometry" />
        </mxCell>
        <mxCell id="K7OHD3vhvZi9s71EPGVb-120" value="&lt;font style=&quot;font-size: 6px;&quot;&gt;XCV-R8051&lt;/font&gt;" style="text;html=1;align=center;verticalAlign=middle;whiteSpace=wrap;rounded=0;direction=west;rotation=90;" parent="1" vertex="1">
          <mxGeometry x="497.5" y="385" width="80" height="30" as="geometry" />
        </mxCell>
        <mxCell id="K7OHD3vhvZi9s71EPGVb-121" value="&lt;font style=&quot;font-size: 6px;&quot;&gt;XCV-T8040&lt;/font&gt;" style="text;html=1;align=center;verticalAlign=middle;whiteSpace=wrap;rounded=0;" parent="1" vertex="1">
          <mxGeometry x="260" y="110" width="80" height="30" as="geometry" />
        </mxCell>
        <mxCell id="hyhWO9iGIhN6OKsFo3Nj-1" value="&lt;font style=&quot;font-size: 6px;&quot;&gt;XCV-V8052&lt;/font&gt;" style="text;html=1;align=center;verticalAlign=middle;whiteSpace=wrap;rounded=0;rotation=90;" vertex="1" parent="1">
          <mxGeometry x="670" y="359" width="49.33" height="20" as="geometry" />
        </mxCell>
        <mxCell id="hyhWO9iGIhN6OKsFo3Nj-2" value="&lt;font style=&quot;font-size: 6px;&quot;&gt;XCV-V8053&lt;/font&gt;" style="text;html=1;align=center;verticalAlign=middle;whiteSpace=wrap;rounded=0;rotation=0;" vertex="1" parent="1">
          <mxGeometry x="855" y="169" width="49.33" height="20" as="geometry" />
        </mxCell>
        <mxCell id="hyhWO9iGIhN6OKsFo3Nj-7" value="" style="endArrow=none;dashed=1;html=1;dashPattern=1 3;strokeWidth=1;rounded=0;exitX=1;exitY=0.5;exitDx=0;exitDy=0;exitPerimeter=0;entryX=1;entryY=0.5;entryDx=0;entryDy=0;" edge="1" parent="1" source="K7OHD3vhvZi9s71EPGVb-28" target="K7OHD3vhvZi9s71EPGVb-116">
          <mxGeometry width="50" height="50" relative="1" as="geometry">
            <mxPoint x="610" y="280" as="sourcePoint" />
            <mxPoint x="660" y="230" as="targetPoint" />
            <Array as="points">
              <mxPoint x="628" y="210" />
            </Array>
          </mxGeometry>
        </mxCell>
        <mxCell id="hyhWO9iGIhN6OKsFo3Nj-9" value="" style="endArrow=none;dashed=1;html=1;dashPattern=1 3;strokeWidth=1;rounded=0;exitX=1;exitY=0.5;exitDx=0;exitDy=0;exitPerimeter=0;entryX=0.5;entryY=0;entryDx=0;entryDy=0;" edge="1" parent="1" source="K7OHD3vhvZi9s71EPGVb-6" target="K7OHD3vhvZi9s71EPGVb-116">
          <mxGeometry width="50" height="50" relative="1" as="geometry">
            <mxPoint x="478" y="280" as="sourcePoint" />
            <mxPoint x="470" y="170" as="targetPoint" />
            <Array as="points">
              <mxPoint x="480" y="210" />
              <mxPoint x="520" y="210" />
              <mxPoint x="520" y="200" />
            </Array>
          </mxGeometry>
        </mxCell>
        <mxCell id="hyhWO9iGIhN6OKsFo3Nj-10" value="Steam" style="text;html=1;align=center;verticalAlign=middle;whiteSpace=wrap;rounded=0;" vertex="1" parent="1">
          <mxGeometry x="365" y="300" width="60" height="30" as="geometry" />
        </mxCell>
      </root>
    </mxGraphModel>
  </diagram>
</mxfile>
